<svg class="diagram-root" style="background: #f5f6f6" xmlns="http://www.w3.org/2000/svg" xmlns:xlink="http://www.w3.org/1999/xlink"><style>.diagram-root { font-family: "Helvetica Neue", sans-serif; font-size: 12px; } .t { overflow: visible; } .t-bg { y: 40; fill: #fff;   } .th { fill: #005aa0;   } .tht { fill: #fff; font-size: 14px;  } .tf { fill: #323c46; overflow: visible; } .tf.pk { fill: #005aa0; font-weight: bold; } .tf.fk { font-weight: bold; } .ty { fill: #adb1b5; font-weight: normal; text-anchor: end; } .r { fill: transparent; stroke: #c3c3c3; stroke-width: 1; } .l { stroke: 1; } .i { fill: #c2c7ce; stroke: #c2c7ce; } .i.ix { fill: #afb3b6; stroke: #000; } .fa { fill: transparent; overflow: visible; } .fa .bg.hover { fill: #f7f7f7; } .c { cy: 12; r: 4; stroke: #d2d2dc; fill: #d2d2dc; } .hr { fill: transparent; stroke: #323c46; stroke-opacity: 0.035; stroke-width: 13; } .dc { stroke: #fa5a3c; fill: #fa5a3c; } .x { stroke: white; stroke-width: 1; } .hl .th { fill: #1b9bff; } .hl .tht {  } .fhl .bg { fill: #e7f4ff; } .fhls .bg {  } .r.hl { stroke: #1b9bff; } .dim { opacity: 0.25; }</style><g class="drawing-wrapper" transform="translate(-269.1111111111115, -295.5544444444452) scale(1,1)"><g class="rs"><path d="M 428.05 638.67 m -1, 0 a 1,1 0 1,0 2,0 a 1,1 0 1,0 -2,0 M 428.05 638.67 m -0.5, 0 a 0.5,0.5 0 1,0 1,0 a 0.5,0.5 0 1,0 -1,0  M428.05 638.67 L428.05 638.67 440.05 638.67 M 428.05 644.67 m -1, 0 a 1,1 0 1,0 2,0 a 1,1 0 1,0 -2,0 M 428.05 644.67 m -0.5, 0 a 0.5,0.5 0 1,0 1,0 a 0.5,0.5 0 1,0 -1,0  M428.05 644.67 L428.05 644.67 435.05 638.67 428.05 632.67 M 428.05 632.67 m -1, 0 a 1,1 0 1,0 2,0 a 1,1 0 1,0 -2,0 M 428.05 632.67 m -0.5, 0 a 0.5,0.5 0 1,0 1,0 a 0.5,0.5 0 1,0 -1,0  M440.05 638.67 C 492.866 638.67, 491.81 383.67, 441.81 383.67 M 429.81 383.67 m -1, 0 a 1,1 0 1,0 2,0 a 1,1 0 1,0 -2,0 M 429.81 383.67 m -0.5, 0 a 0.5,0.5 0 1,0 1,0 a 0.5,0.5 0 1,0 -1,0  M429.81 383.67 L429.81 383.67 441.81 383.67 M435.81 389.67 L435.81 389.67 435.81 377.67" id="h975146615" class="r"></path><path d="M 428.05 713.67 m -1, 0 a 1,1 0 1,0 2,0 a 1,1 0 1,0 -2,0 M 428.05 713.67 m -0.5, 0 a 0.5,0.5 0 1,0 1,0 a 0.5,0.5 0 1,0 -1,0  M428.05 713.67 L428.05 713.67 440.05 713.67 M 428.05 719.67 m -1, 0 a 1,1 0 1,0 2,0 a 1,1 0 1,0 -2,0 M 428.05 719.67 m -0.5, 0 a 0.5,0.5 0 1,0 1,0 a 0.5,0.5 0 1,0 -1,0  M428.05 719.67 L428.05 719.67 435.05 713.67 428.05 707.67 M 428.05 707.67 m -1, 0 a 1,1 0 1,0 2,0 a 1,1 0 1,0 -2,0 M 428.05 707.67 m -0.5, 0 a 0.5,0.5 0 1,0 1,0 a 0.5,0.5 0 1,0 -1,0  M440.05 713.67 Q 467.46 713.67, 494.86 548.11 T 549.66 382.55 M 561.66 382.55 m -1, 0 a 1,1 0 1,0 2,0 a 1,1 0 1,0 -2,0 M 561.66 382.55 m -0.5, 0 a 0.5,0.5 0 1,0 1,0 a 0.5,0.5 0 1,0 -1,0  M561.66 382.55 L561.66 382.55 549.66 382.55 M555.66 388.55 L555.66 388.55 555.66 376.55" id="h4051305756" class="r"></path><path d="M 428.05 738.67 m -1, 0 a 1,1 0 1,0 2,0 a 1,1 0 1,0 -2,0 M 428.05 738.67 m -0.5, 0 a 0.5,0.5 0 1,0 1,0 a 0.5,0.5 0 1,0 -1,0  M428.05 738.67 L428.05 738.67 440.05 738.67 M 428.05 744.67 m -1, 0 a 1,1 0 1,0 2,0 a 1,1 0 1,0 -2,0 M 428.05 744.67 m -0.5, 0 a 0.5,0.5 0 1,0 1,0 a 0.5,0.5 0 1,0 -1,0  M428.05 744.67 L428.05 744.67 435.05 738.67 428.05 732.67 M 428.05 732.67 m -1, 0 a 1,1 0 1,0 2,0 a 1,1 0 1,0 -2,0 M 428.05 732.67 m -0.5, 0 a 0.5,0.5 0 1,0 1,0 a 0.5,0.5 0 1,0 -1,0  M440.05 738.67 Q 467.18 738.67, 494.3 640.06 T 548.55 541.45 M 560.55 541.45 m -1, 0 a 1,1 0 1,0 2,0 a 1,1 0 1,0 -2,0 M 560.55 541.45 m -0.5, 0 a 0.5,0.5 0 1,0 1,0 a 0.5,0.5 0 1,0 -1,0  M560.55 541.45 L560.55 541.45 548.55 541.45 M554.55 547.45 L554.55 547.45 554.55 535.45" id="h919647158" class="r"></path><path d="M 703.51 731.45 m -1, 0 a 1,1 0 1,0 2,0 a 1,1 0 1,0 -2,0 M 703.51 731.45 m -0.5, 0 a 0.5,0.5 0 1,0 1,0 a 0.5,0.5 0 1,0 -1,0  M703.51 731.45 L703.51 731.45 715.51 731.45 M 703.51 737.45 m -1, 0 a 1,1 0 1,0 2,0 a 1,1 0 1,0 -2,0 M 703.51 737.45 m -0.5, 0 a 0.5,0.5 0 1,0 1,0 a 0.5,0.5 0 1,0 -1,0  M703.51 737.45 L703.51 737.45 710.51 731.45 703.51 725.45 M 703.51 725.45 m -1, 0 a 1,1 0 1,0 2,0 a 1,1 0 1,0 -2,0 M 703.51 725.45 m -0.5, 0 a 0.5,0.5 0 1,0 1,0 a 0.5,0.5 0 1,0 -1,0  M715.51 731.45 C 1080.31 731.45, 962.26 465.89, 912.26 465.89 M 900.26 465.89 m -1, 0 a 1,1 0 1,0 2,0 a 1,1 0 1,0 -2,0 M 900.26 465.89 m -0.5, 0 a 0.5,0.5 0 1,0 1,0 a 0.5,0.5 0 1,0 -1,0  M900.26 465.89 L900.26 465.89 912.26 465.89 M906.26 471.89 L906.26 471.89 906.26 459.89" id="h1523309739" class="r"></path><path d="M 546 756.45 m -1, 0 a 1,1 0 1,0 2,0 a 1,1 0 1,0 -2,0 M 546 756.45 m -0.5, 0 a 0.5,0.5 0 1,0 1,0 a 0.5,0.5 0 1,0 -1,0  M546 756.45 L546 756.45 534 756.45 M 546 762.45 m -1, 0 a 1,1 0 1,0 2,0 a 1,1 0 1,0 -2,0 M 546 762.45 m -0.5, 0 a 0.5,0.5 0 1,0 1,0 a 0.5,0.5 0 1,0 -1,0  M546 762.45 L546 762.45 539 756.45 546 750.45 M 546 750.45 m -1, 0 a 1,1 0 1,0 2,0 a 1,1 0 1,0 -2,0 M 546 750.45 m -0.5, 0 a 0.5,0.5 0 1,0 1,0 a 0.5,0.5 0 1,0 -1,0  M534 756.45 Q 510.52 756.45, 487.03 685.06 T 440.05 613.67 M 428.05 613.67 m -1, 0 a 1,1 0 1,0 2,0 a 1,1 0 1,0 -2,0 M 428.05 613.67 m -0.5, 0 a 0.5,0.5 0 1,0 1,0 a 0.5,0.5 0 1,0 -1,0  M428.05 613.67 L428.05 613.67 440.05 613.67 M434.05 619.67 L434.05 619.67 434.05 607.67" id="h3775648644" class="r"></path></g><g class="hrs"></g><g class="ts"><svg width="138.7" height="200" x="291.11" y="326.67" id="h2948373614" class="t"><rect height="40" width="138.7" class="th"></rect><text x="13" y="25" class="tht">users</text><rect height="160" width="138.7" class="t-bg"></rect><text x="13" y="61" class="tf pk">username<tspan x="125.69999999999999" class="ty">text</tspan></text><path d="M7,14A2,2 0 0,1 5,12A2,2 0 0,1 7,10A2,2 0 0,1 9,12A2,2 0 0,1 7,14M12.65,10C11.83,7.67 9.61,6 7, 6A6, 6 0 0, 0 1, 12A6, 6 0 0, 0 7, 18C9.61, 18 11.83, 16.33 12.65, 14H17V18H21V14H23V10H12.65Z" class="i pk" transform="translate(86.35820312499999, 48) scale(0.65)"></path><text x="13" y="86" class="tf">password<tspan x="125.69999999999999" class="ty">text</tspan></text><text x="13" y="111" class="tf">first_name<tspan x="125.69999999999999" class="ty">text</tspan></text><text x="13" y="136" class="tf">last_name<tspan x="125.69999999999999" class="ty">text</tspan></text><text x="13" y="161" class="tf">email<tspan x="125.69999999999999" class="ty">text</tspan></text><text x="13" y="186" class="tf">is_admin<tspan x="125.69999999999999" class="ty">bool</tspan></text></svg><svg width="118.03" height="125" x="561.66" y="325.55" id="h4240150448" class="t"><rect height="40" width="118.03" class="th"></rect><text x="13" y="25" class="tht">prompts_list</text><rect height="85" width="118.03" class="t-bg"></rect><text x="13" y="61" class="tf pk">id<tspan x="105.03" class="ty">SERIAL</tspan></text><path d="M7,14A2,2 0 0,1 5,12A2,2 0 0,1 7,10A2,2 0 0,1 9,12A2,2 0 0,1 7,14M12.65,10C11.83,7.67 9.61,6 7, 6A6, 6 0 0, 0 1, 12A6, 6 0 0, 0 7, 18C9.61, 18 11.83, 16.33 12.65, 14H17V18H21V14H23V10H12.65Z" class="i pk" transform="translate(42.344453125, 48) scale(0.65)"></path><text x="13" y="86" class="tf">prompt<tspan x="105.03" class="ty">text</tspan></text><text x="13" y="111" class="tf">flagged<tspan x="105.03" class="ty">bool</tspan></text></svg><svg width="128.03" height="75" x="772.23" y="408.89" id="h3052579355" class="t"><rect height="40" width="128.03" class="th"></rect><text x="13" y="25" class="tht">emotions_list</text><rect height="35" width="128.03" class="t-bg"></rect><text x="13" y="61" class="tf pk">emotion<tspan x="115.03" class="ty">text</tspan></text><path d="M7,14A2,2 0 0,1 5,12A2,2 0 0,1 7,10A2,2 0 0,1 9,12A2,2 0 0,1 7,14M12.65,10C11.83,7.67 9.61,6 7, 6A6, 6 0 0, 0 1, 12A6, 6 0 0, 0 7, 18C9.61, 18 11.83, 16.33 12.65, 14H17V18H21V14H23V10H12.65Z" class="i pk" transform="translate(75.688203125, 48) scale(0.65)"></path></svg><svg width="120.04" height="125" x="560.55" y="484.45" id="h1061165657" class="t"><rect height="40" width="120.04" class="th"></rect><text x="13" y="25" class="tht">inspirations</text><rect height="85" width="120.04" class="t-bg"></rect><text x="13" y="61" class="tf pk">id<tspan x="107.04" class="ty">SERIAL</tspan></text><path d="M7,14A2,2 0 0,1 5,12A2,2 0 0,1 7,10A2,2 0 0,1 9,12A2,2 0 0,1 7,14M12.65,10C11.83,7.67 9.61,6 7, 6A6, 6 0 0, 0 1, 12A6, 6 0 0, 0 7, 18C9.61, 18 11.83, 16.33 12.65, 14H17V18H21V14H23V10H12.65Z" class="i pk" transform="translate(44.354453125000006, 48) scale(0.65)"></path><text x="13" y="86" class="tf">inspiration<tspan x="107.04" class="ty">text</tspan></text><text x="13" y="111" class="tf">flagged<tspan x="107.04" class="ty">bool</tspan></text></svg><svg width="131.39" height="425" x="296.66" y="556.67" id="h1928600639" class="t"><rect height="40" width="131.39" class="th"></rect><text x="13" y="25" class="tht">diary_entries</text><rect height="385" width="131.39" class="t-bg"></rect><text x="13" y="61" class="tf pk">id<tspan x="118.38999999999999" class="ty">SERIAL</tspan></text><path d="M7,14A2,2 0 0,1 5,12A2,2 0 0,1 7,10A2,2 0 0,1 9,12A2,2 0 0,1 7,14M12.65,10C11.83,7.67 9.61,6 7, 6A6, 6 0 0, 0 1, 12A6, 6 0 0, 0 7, 18C9.61, 18 11.83, 16.33 12.65, 14H17V18H21V14H23V10H12.65Z" class="i pk" transform="translate(55.704453124999986, 48) scale(0.65)"></path><text x="13" y="86" class="tf fk">username<tspan x="118.38999999999999" class="ty">text</tspan></text><text x="13" y="111" class="tf">entry<tspan x="118.38999999999999" class="ty">text</tspan></text><text x="13" y="136" class="tf">date<tspan x="118.38999999999999" class="ty">timestamp</tspan></text><text x="13" y="161" class="tf fk">prompt_id<tspan x="118.38999999999999" class="ty">int</tspan></text><text x="13" y="186" class="tf fk">inspiration_id<tspan x="118.38999999999999" class="ty">int</tspan></text><text x="13" y="211" class="tf">joy<tspan x="118.38999999999999" class="ty">float</tspan></text><text x="13" y="236" class="tf">no_emotion<tspan x="118.38999999999999" class="ty">float</tspan></text><text x="13" y="261" class="tf">sadness<tspan x="118.38999999999999" class="ty">float</tspan></text><text x="13" y="286" class="tf">fear<tspan x="118.38999999999999" class="ty">float</tspan></text><text x="13" y="311" class="tf">surprise<tspan x="118.38999999999999" class="ty">float</tspan></text><text x="13" y="336" class="tf">anger<tspan x="118.38999999999999" class="ty">float</tspan></text><text x="13" y="361" class="tf">disgust<tspan x="118.38999999999999" class="ty">float</tspan></text><text x="13" y="386" class="tf">anticipation<tspan x="118.38999999999999" class="ty">float</tspan></text><text x="13" y="411" class="tf">trust<tspan x="118.38999999999999" class="ty">float</tspan></text></svg><svg width="157.51" height="100" x="546" y="674.45" id="h526029068" class="t"><rect height="40" width="157.51" class="th"></rect><text x="13" y="25" class="tht">entries_list_emotions</text><rect height="60" width="157.51" class="t-bg"></rect><text x="13" y="61" class="tf pk">emotion<tspan x="144.51" class="ty">text</tspan></text><path d="M7,14A2,2 0 0,1 5,12A2,2 0 0,1 7,10A2,2 0 0,1 9,12A2,2 0 0,1 7,14M12.65,10C11.83,7.67 9.61,6 7, 6A6, 6 0 0, 0 1, 12A6, 6 0 0, 0 7, 18C9.61, 18 11.83, 16.33 12.65, 14H17V18H21V14H23V10H12.65Z" class="i pk" transform="translate(105.16820312499999, 48) scale(0.65)"></path><text x="13" y="86" class="tf pk">diary_entry_id<tspan x="144.51" class="ty">int</tspan></text><path d="M7,14A2,2 0 0,1 5,12A2,2 0 0,1 7,10A2,2 0 0,1 9,12A2,2 0 0,1 7,14M12.65,10C11.83,7.67 9.61,6 7, 6A6, 6 0 0, 0 1, 12A6, 6 0 0, 0 7, 18C9.61, 18 11.83, 16.33 12.65, 14H17V18H21V14H23V10H12.65Z" class="i pk" transform="translate(111.83617187499999, 73) scale(0.65)"></path></svg></g></g><text class="qdbd-link" x="10" y="20">www.quickdatabasediagrams.com</text></svg>